# xmcd CD database file
#
# Track frame offsets:
#	150
#	35792
#	79305
#	115085
#	140767
#
# Disc length: 2807 seconds
#
# Revision: 1
# Processed by: cddbd v1.5.2PL0 Copyright (c) Steve Scherf et al.
# Submitted via: CDex 1.51
#
DISCID=440af505
DTITLE=Maelström Percussion Ensemble - Bob Accurso - Gary Rutkowski
DYEAR=1990
DGENRE=Jazz
TTITLE0=New Space
TTITLE1=Winter Rain
TTITLE2=Desert Winds
TTITLE3=Sea of Green
TTITLE4=Inner Voice
EXTD=YEAR: 1990
EXTT0=
EXTT1=
EXTT2=
EXTT3=
EXTT4=
PLAYORDER=
